<?xml version="1.0" encoding="utf-8"?>
<!-- Generator: Adobe Illustrator 25.0.0, SVG Export Plug-In . SVG Version: 6.00 Build 0)  -->
<svg version="1.1" id="Capa_1" xmlns="http://www.w3.org/2000/svg" xmlns:xlink="http://www.w3.org/1999/xlink" x="0px" y="0px"
	 viewBox="0 0 100 100" style="enable-background:new 0 0 100 100;" xml:space="preserve">
<style type="text/css">
	.st0{stroke:#000000;stroke-width:0.75;stroke-miterlimit:10;}
</style>
<path class="st0" d="M6.1,41.8c-0.4-0.1-1.1-0.2-1.8-0.4c-2.9-1-4.4-3.8-4-7.1C0.8,31.5,3,29.7,6,29.6c2.1,0,4.1-0.1,6.2,0
	c1,0,1.4-0.3,1.8-1.2c1.1-3.3,2.3-6.5,3.7-9.9c2-5.3,5.4-7.7,11.1-7.7c14.3,0,28.6,0,42.9,0c5.1,0,8.5,2.2,10.4,7
	c1.3,3.3,2.7,6.8,3.9,10.2c0.3,1.1,1,1.4,2.1,1.4c2-0.1,4.1-0.1,6.2,0c3,0.1,5.1,1.9,5.5,4.7c0.6,3-0.9,5.8-3.6,6.9
	c-0.8,0.3-1.4,0.6-1.9,0.7c0.2,2.2,0.7,4.2,0.7,6.3c0.1,8.8,0,17.4,0,26.2c0,5.1-2.6,7.5-7.8,7.7c-1.9,0-3.7,0-5.5,0
	c-4.3-0.1-7-2.8-7-7.1c0-0.7,0-1.3,0-2.2c-16.4,0-32.7,0-49.3,0c0,0.9,0,1.7,0,2.4c-0.1,4.1-2.7,6.7-6.7,6.9c-2.2,0.1-4.5,0.1-6.8,0
	c-3.8-0.1-6.4-2.6-6.5-6.3c-0.3-6-0.2-12-0.2-18c0-3.4-0.1-6.8,0-10.2C5.4,45.6,5.8,43.7,6.1,41.8z M50,68.9c6.7,0,13.2,0,19.9,0
	c5.5,0,11,0,16.5,0c3.1,0,5-1.9,5-4.9c0-5.5,0-11,0-16.5c0-4.2-2.1-6.2-6.3-6.2c-23.3,0-46.5,0-69.7,0c-4.4,0-6.3,2-6.3,6.4
	C9,53,9,58.5,9,63.8c0,3.7,1.6,5.2,5.2,5.2C26,68.9,38,68.9,50,68.9z M85.6,37.4c-0.1-0.4-0.1-0.9-0.3-1.2c-2-5.3-4-10.5-6.1-15.8
	c-1.8-4.5-3.4-5.5-8.3-5.5c-9.1,0-18.2,0-27.4,0c-5,0-10,0-15,0c-3.3,0-6,1.3-7.2,4.5c-2.2,5.8-4.4,11.9-6.7,18
	C38.2,37.4,61.8,37.4,85.6,37.4z M8.9,71.2c0,1.3,0,2.3,0,3.3c0,0.2,0,0.4,0.1,0.8c0.2,2,1.1,3,3.2,3.1c2.2,0.1,4.4,0.1,6.5,0
	c1.4-0.1,2.6-0.8,2.9-2.2c0.2-1.1,0-2.2,0-3.4C17.3,72.2,13,73.5,8.9,71.2z M78.2,72.8c0,0.9,0,1.7,0,2.4c0.1,2,1,3,2.9,3.1
	c2.3,0.1,4.5,0.1,6.9,0c1.4-0.1,2.6-0.9,2.9-2.2c0.3-1.4,0.2-3.1,0.4-4.8C86.9,73.5,82.6,72.1,78.2,72.8z M88,33.3
	c0.7,1.4,1.1,2.8,1.8,4c0.2,0.3,0.7,0.8,1.1,0.9c1.2,0.1,2.4,0.1,3.6,0c1.3-0.2,2-1.1,2-2.4c0-1.2-0.7-2.2-1.9-2.3
	C92.3,33.2,90.2,33.3,88,33.3z M12.1,33.2c-2.3,0-4.2-0.1-6.1,0c-1.7,0.1-2.7,1.9-1.9,3.4c0.9,1.8,4.9,2.2,6,0.6
	C10.9,36.1,11.4,34.7,12.1,33.2z"/>
<path class="st0" d="M24.1,60.8c-1.6,0-3,0.1-4.5,0c-3.2-0.3-5.1-2.1-5.5-5.3c-0.2-1.7-0.1-3.4,0.2-5.1c0.6-2.6,3.6-4.3,6.3-3.8
	c2.7,0.4,5.2,0.9,7.8,1.4c3.7,0.8,5.7,3.6,5.3,7.2c-0.3,3.4-2.9,5.5-6.7,5.5c-1,0-2,0-3,0C24.1,60.9,24.1,60.8,24.1,60.8z
	 M23.9,57.3L23.9,57.3c1.3,0,2.6,0.1,3.9,0c1.6-0.1,2.6-1.2,2.6-2.8c0-1.4-0.8-2.2-2.1-2.6c-2.2-0.6-4.5-1-6.9-1.4
	c-3.1-0.6-3.9,0-3.9,3.2c0,0.2,0,0.6,0,0.8c0.1,1.7,0.9,2.7,2.7,2.8C21.3,57.4,22.7,57.3,23.9,57.3z"/>
<path class="st0" d="M76,60.8c-1.2,0-2.6,0.1-3.8,0c-3.2-0.2-5.5-2.6-5.8-5.7c-0.2-3.9,1.7-6.5,5.1-7.2c2.4-0.4,5-1,7.5-1.3
	c3.4-0.6,6.2,1.2,6.9,4.7c0.2,1.4,0.2,3.1,0,4.7c-0.6,3-2.8,4.8-6,5C78.7,60.9,77.4,60.8,76,60.8z M76.3,57.3
	C76.3,57.4,76.3,57.4,76.3,57.3c0.8,0,1.6,0,2.4,0c3.3,0,4.5-1.4,4-4.8c-0.2-1.7-1.3-2.6-3-2.3c-2.4,0.4-4.8,0.9-7.2,1.3
	c-1.7,0.3-2.3,1.3-2.2,3.1c0.1,1.4,1,2.4,2.7,2.6C73.9,57.4,75,57.3,76.3,57.3z"/>
<path class="st0" d="M50.4,55.8c-2.9,0-5.8,0-8.7,0c-1.4,0-2.3-0.8-2.2-1.9c0.1-1.3,0.9-1.9,2.2-1.9c5.8,0,11.5,0,17.3,0
	c1.7,0,2.2,0.7,2.2,2s-0.6,1.8-2.3,1.8C56.1,55.8,53.3,55.8,50.4,55.8L50.4,55.8z"/>
</svg>
