<?xml version="1.0" encoding="utf-8"?>
<!-- Generator: Adobe Illustrator 25.0.0, SVG Export Plug-In . SVG Version: 6.00 Build 0)  -->
<svg version="1.1" id="Capa_1" xmlns="http://www.w3.org/2000/svg" xmlns:xlink="http://www.w3.org/1999/xlink" x="0px" y="0px"
	 viewBox="0 0 100 100" style="enable-background:new 0 0 100 100;" xml:space="preserve">
<style type="text/css">
	.st0{stroke:#000000;stroke-width:1.5;stroke-miterlimit:10;}
</style>
<path class="st0" d="M48.5,89.8c-11.3,0-22.7-0.1-34,0.1c-2.8,0-4.2-1.8-4.2-4.3c0.1-13.6,0.1-27.2,0-40.9c0-2.9,0.9-4.9,3.2-6.6
	c8.4-6.2,16.7-12.6,25.1-18.9c7.1-5.3,15.2-7.9,24.1-8c8.9-0.1,17.9,0,26.8,0c2.3,0,3,0.7,2.9,3c-0.4,6.6-0.8,13.2-1.2,19.7
	c-0.1,1.7-0.2,3.4-0.4,5.1c-0.1,1-0.1,1.8,0.8,2.6c0.4,0.4,0.6,1.4,0.5,2.1c-0.3,6.5-0.7,13-1.2,19.4c-0.4,6.8-0.9,13.6-1.4,20.4
	c-0.3,3.8-2.9,6.4-6.8,6.4C71.3,89.8,59.9,89.8,48.5,89.8L48.5,89.8z M14.2,85.9c0.5,0,0.8,0.1,1.2,0.1c22.4,0,44.7,0,67.1,0
	c2,0,3-0.8,3.2-2.8c0.4-3.7,0.7-7.3,0.9-11c0.5-7.1,0.9-14.2,1.3-21.3c0.1-2,0.2-4,0.3-6c-24.7,0-49.3,0-73.9,0
	C14.2,58.5,14.2,72.1,14.2,85.9z M16.5,40.7c23.7,0,47,0,70.5,0c0.5-8.5,1-17,1.6-25.6c-1.1,0-1.9,0-2.8,0c-7.3,0-14.6,0-21.9,0
	c-8.6,0-16.3,2.4-23.2,7.5C32.7,28.5,24.8,34.5,16.5,40.7z"/>
<path class="st0" d="M73.9,51.6c1.7,0,3.4,0,5.1,0c1.3,0,2.2,0.5,2.2,1.9c0,1.4-0.9,1.9-2.1,1.9c-3.6,0.1-7.1,0.1-10.7,0
	c-1.1,0-1.9-0.6-1.9-1.7c0-1.2,0.6-2,1.9-2.1C70.3,51.7,72.1,51.7,73.9,51.6C73.9,51.7,73.9,51.6,73.9,51.6z"/>
</svg>
